<svg id="svg" version="1.1" xmlns="http://www.w3.org/2000/svg" xmlns:xlink="http://www.w3.org/1999/xlink" width="400" height="400" viewBox="0, 0, 400,400"><g id="svgg"><path id="path0" d="M195.617 54.876 C 181.676 57.655,176.508 75.276,186.661 85.414 C 196.495 95.233,213.526 90.415,216.709 76.915 C 219.743 64.044,208.509 52.305,195.617 54.876 M103.734 100.290 C 90.479 104.155,86.219 120.597,95.941 130.370 C 105.962 140.445,122.851 135.607,126.123 121.725 C 129.220 108.588,116.625 96.531,103.734 100.290 M286.039 100.224 C 272.115 102.552,266.289 119.838,275.917 130.256 C 285.838 140.991,303.641 136.115,306.667 121.833 C 309.295 109.433,298.513 98.138,286.039 100.224 M136.688 153.734 L 136.688 169.805 153.734 169.805 L 170.779 169.805 170.779 153.734 L 170.779 137.662 153.734 137.662 L 136.688 137.662 136.688 153.734 M230.844 153.734 L 230.844 169.805 247.727 169.805 L 264.610 169.805 264.610 153.734 L 264.610 137.662 247.727 137.662 L 230.844 137.662 230.844 153.734 M75.081 178.393 C 61.383 181.515,56.365 198.742,66.230 208.781 C 75.585 218.301,91.818 214.487,96.060 201.774 C 100.454 188.602,88.541 175.325,75.081 178.393 M328.571 178.429 C 314.709 181.417,309.694 198.723,319.772 208.800 C 327.836 216.864,341.184 215.552,347.350 206.088 C 356.193 192.515,344.324 175.033,328.571 178.429 M184.416 196.104 L 184.416 212.338 201.461 212.338 L 218.506 212.338 218.506 196.104 L 218.506 179.870 201.461 179.870 L 184.416 179.870 184.416 196.104 M136.688 245.617 L 136.688 261.688 153.734 261.688 L 170.779 261.688 170.779 245.617 L 170.779 229.545 153.734 229.545 L 136.688 229.545 136.688 245.617 M230.519 247.403 L 230.519 263.636 247.565 263.636 L 264.610 263.636 264.610 247.403 L 264.610 231.169 247.565 231.169 L 230.519 231.169 230.519 247.403 M105.558 266.422 C 92.091 270.044,87.670 286.716,97.555 296.601 C 107.753 306.799,124.784 301.667,127.758 287.500 C 130.469 274.589,118.267 263.004,105.558 266.422 M287.825 269.139 C 273.752 271.428,267.766 288.636,277.372 299.188 C 286.405 309.112,303.182 305.801,307.503 293.242 C 312.031 280.081,301.307 266.946,287.825 269.139 M194.517 299.214 C 180.699 302.931,176.676 321.598,187.764 330.548 C 199.733 340.208,217.208 331.942,217.208 316.618 C 217.208 304.828,205.898 296.154,194.517 299.214 " stroke="none" fill="#050504" fill-rule="evenodd"></path><path id="path1" d="M0.000 200.000 L 0.000 400.000 200.000 400.000 L 400.000 400.000 400.000 200.000 L 400.000 0.000 200.000 0.000 L 0.000 0.000 0.000 200.000 M205.248 55.332 C 216.806 59.351,221.227 73.341,214.097 83.333 C 205.634 95.192,186.779 92.433,181.956 78.630 C 176.956 64.322,190.924 50.350,205.248 55.332 M112.417 99.826 C 126.954 102.906,131.863 121.053,120.898 131.174 C 113.985 137.555,103.223 137.555,96.310 131.174 C 82.615 118.534,94.211 95.968,112.417 99.826 M294.575 100.656 C 309.352 105.245,312.001 125.030,298.967 133.455 C 286.887 141.262,270.814 132.452,270.784 118.007 C 270.767 109.815,277.005 101.930,284.740 100.367 C 285.722 100.169,286.818 99.940,287.175 99.860 C 288.402 99.583,292.561 100.030,294.575 100.656 M171.104 153.734 L 171.104 170.130 153.734 170.130 L 136.364 170.130 136.364 153.734 L 136.364 137.338 153.734 137.338 L 171.104 137.338 171.104 153.734 M264.773 153.734 L 264.773 169.968 247.646 170.052 L 230.519 170.136 230.519 153.734 L 230.519 137.332 247.646 137.416 L 264.773 137.500 264.773 153.734 M83.279 178.300 C 91.305 179.973,97.243 187.550,97.232 196.104 C 97.210 212.372,77.597 220.444,66.072 208.929 C 53.045 195.912,65.071 174.506,83.279 178.300 M337.086 178.428 C 350.579 181.701,355.278 199.102,345.322 208.929 C 333.705 220.394,314.099 212.328,314.150 196.104 C 314.189 183.899,325.070 175.513,337.086 178.428 M218.831 195.942 L 218.831 212.338 201.461 212.338 L 184.091 212.338 184.091 196.158 C 184.091 187.259,184.188 179.881,184.307 179.762 C 184.426 179.643,192.243 179.545,201.677 179.545 L 218.831 179.545 218.831 195.942 M171.104 245.617 L 171.104 262.013 153.734 262.013 L 136.364 262.013 136.364 245.617 L 136.364 229.221 153.734 229.221 L 171.104 229.221 171.104 245.617 M264.935 247.240 L 264.935 263.636 247.565 263.636 L 230.195 263.636 230.195 247.457 C 230.195 238.558,230.292 231.180,230.411 231.061 C 230.530 230.942,238.347 230.844,247.781 230.844 L 264.935 230.844 264.935 247.240 M114.054 266.063 C 125.599 268.509,131.793 281.208,126.607 291.799 C 119.936 305.421,100.590 305.634,93.846 292.160 C 86.935 278.352,98.932 262.858,114.054 266.063 M295.275 269.327 C 307.453 272.499,312.839 286.719,305.831 297.197 C 295.876 312.081,272.403 304.930,272.403 287.013 C 272.403 275.052,283.704 266.314,295.275 269.327 M203.494 298.865 C 217.113 302.077,222.246 319.329,212.540 329.271 C 200.958 341.133,181.092 333.214,181.060 316.721 C 181.036 304.783,191.904 296.133,203.494 298.865 " stroke="none" fill="#fbdb14" fill-rule="evenodd"></path><path id="path2" d="M198.301 54.456 C 198.885 54.528,199.761 54.527,200.249 54.453 C 200.737 54.379,200.260 54.320,199.188 54.321 C 198.117 54.323,197.718 54.384,198.301 54.456 M186.189 59.821 L 184.578 61.526 186.282 59.915 C 187.866 58.418,188.136 58.117,187.894 58.117 C 187.842 58.117,187.075 58.884,186.189 59.821 M180.945 72.565 C 180.947 73.636,181.007 74.036,181.079 73.452 C 181.152 72.868,181.150 71.992,181.076 71.504 C 181.002 71.016,180.943 71.494,180.945 72.565 M211.996 85.633 L 210.877 86.851 212.094 85.732 C 213.227 84.690,213.461 84.416,213.213 84.416 C 213.159 84.416,212.611 84.963,211.996 85.633 M107.379 99.585 C 107.955 99.657,108.978 99.658,109.652 99.588 C 110.325 99.517,109.854 99.459,108.604 99.457 C 107.354 99.456,106.803 99.513,107.379 99.585 M288.397 99.908 C 288.891 99.983,289.621 99.981,290.021 99.904 C 290.420 99.827,290.016 99.766,289.123 99.768 C 288.231 99.771,287.904 99.834,288.397 99.908 M144.863 137.581 C 149.628 137.631,157.517 137.632,162.396 137.581 C 167.275 137.530,163.377 137.489,153.734 137.489 C 144.091 137.489,140.099 137.530,144.863 137.581 M247.490 137.580 L 264.622 137.668 264.535 153.883 C 264.487 162.801,264.559 169.987,264.695 169.851 C 264.830 169.715,264.903 162.381,264.857 153.552 L 264.773 137.500 247.565 137.496 L 230.357 137.491 247.490 137.580 M192.938 179.789 C 197.715 179.839,205.532 179.839,210.308 179.789 C 215.085 179.738,211.177 179.697,201.623 179.697 C 192.070 179.697,188.162 179.738,192.938 179.789 M91.721 183.117 C 92.418 183.831,93.062 184.416,93.151 184.416 C 93.241 184.416,92.743 183.831,92.045 183.117 C 91.348 182.403,90.704 181.818,90.615 181.818 C 90.526 181.818,91.023 182.403,91.721 183.117 M319.298 183.198 L 318.344 184.253 319.399 183.300 C 319.980 182.775,320.455 182.300,320.455 182.244 C 320.455 181.994,320.187 182.214,319.298 183.198 M314.058 196.104 C 314.058 197.086,314.119 197.488,314.194 196.997 C 314.268 196.506,314.268 195.702,314.194 195.211 C 314.119 194.720,314.058 195.122,314.058 196.104 M345.280 208.847 L 343.669 210.552 345.373 208.941 C 346.311 208.055,347.078 207.288,347.078 207.236 C 347.078 206.994,346.777 207.264,345.280 208.847 M65.896 208.847 C 66.692 209.696,67.386 210.390,67.438 210.390 C 67.682 210.390,67.424 210.098,65.990 208.753 L 64.448 207.305 65.896 208.847 M144.863 229.464 C 149.628 229.515,157.517 229.515,162.396 229.464 C 167.275 229.414,163.377 229.372,153.734 229.372 C 144.091 229.372,140.099 229.413,144.863 229.464 M239.042 231.087 C 243.819 231.138,251.636 231.138,256.412 231.087 C 261.189 231.037,257.281 230.995,247.727 230.995 C 238.174 230.995,234.265 231.037,239.042 231.087 M108.847 265.821 C 109.517 265.891,110.613 265.891,111.282 265.821 C 111.952 265.751,111.404 265.694,110.065 265.694 C 108.726 265.694,108.178 265.751,108.847 265.821 M97.220 270.860 L 96.266 271.916 97.321 270.962 C 98.305 270.073,98.526 269.805,98.275 269.805 C 98.219 269.805,97.744 270.280,97.220 270.860 M308.864 287.013 C 308.864 287.995,308.924 288.397,308.999 287.906 C 309.073 287.415,309.073 286.611,308.999 286.120 C 308.924 285.629,308.864 286.031,308.864 287.013 M122.877 296.834 L 121.266 298.539 122.971 296.928 C 123.908 296.042,124.675 295.275,124.675 295.223 C 124.675 294.981,124.375 295.251,122.877 296.834 M109.010 302.183 C 109.590 302.255,110.540 302.255,111.120 302.183 C 111.700 302.111,111.226 302.052,110.065 302.052 C 108.904 302.052,108.429 302.111,109.010 302.183 M212.013 303.734 C 212.619 304.359,213.187 304.870,213.277 304.870 C 213.366 304.870,212.943 304.359,212.338 303.734 C 211.732 303.109,211.163 302.597,211.074 302.597 C 210.985 302.597,211.407 303.109,212.013 303.734 M180.945 316.721 C 180.947 317.792,181.007 318.191,181.079 317.608 C 181.152 317.024,181.150 316.148,181.076 315.660 C 181.002 315.172,180.943 315.649,180.945 316.721 M186.025 329.302 C 186.822 330.150,187.515 330.844,187.568 330.844 C 187.811 330.844,187.554 330.553,186.120 329.207 L 184.578 327.760 186.025 329.302 M198.458 334.973 C 198.949 335.047,199.752 335.047,200.244 334.973 C 200.735 334.898,200.333 334.838,199.351 334.838 C 198.369 334.838,197.967 334.898,198.458 334.973 " stroke="none" fill="#948534" fill-rule="evenodd"></path><path id="path3" d="M211.851 59.740 C 212.548 60.455,213.192 61.039,213.281 61.039 C 213.370 61.039,212.873 60.455,212.175 59.740 C 211.478 59.026,210.834 58.442,210.745 58.442 C 210.656 58.442,211.153 59.026,211.851 59.740 M217.305 72.727 C 217.305 73.709,217.366 74.111,217.440 73.620 C 217.515 73.129,217.515 72.325,217.440 71.834 C 217.366 71.343,217.305 71.745,217.305 72.727 M198.620 90.814 C 199.022 90.891,199.679 90.891,200.081 90.814 C 200.483 90.736,200.154 90.673,199.351 90.673 C 198.547 90.673,198.218 90.736,198.620 90.814 M95.596 104.951 L 94.643 106.006 95.698 105.053 C 96.682 104.164,96.902 103.896,96.652 103.896 C 96.596 103.896,96.121 104.371,95.596 104.951 M120.455 103.998 C 120.455 104.054,120.929 104.528,121.510 105.053 L 122.565 106.006 121.611 104.951 C 120.722 103.968,120.455 103.747,120.455 103.998 M94.805 129.647 C 94.805 129.703,95.280 130.178,95.860 130.702 L 96.916 131.656 95.962 130.601 C 95.073 129.617,94.805 129.396,94.805 129.647 M121.246 130.601 L 120.292 131.656 121.347 130.702 C 122.331 129.813,122.552 129.545,122.301 129.545 C 122.245 129.545,121.770 130.020,121.246 130.601 M276.285 130.925 C 277.631 132.359,277.922 132.617,277.922 132.373 C 277.922 132.321,277.228 131.627,276.380 130.831 L 274.838 129.383 276.285 130.925 M301.606 131.088 L 300.487 132.305 301.705 131.186 C 302.838 130.145,303.071 129.870,302.823 129.870 C 302.769 129.870,302.221 130.418,301.606 131.088 M288.397 136.272 C 288.891 136.347,289.621 136.345,290.021 136.268 C 290.420 136.190,290.016 136.129,289.123 136.132 C 288.231 136.134,287.904 136.197,288.397 136.272 M136.521 153.815 L 136.526 169.968 153.571 169.972 L 170.617 169.976 153.656 169.888 L 136.694 169.799 136.606 153.731 L 136.517 137.662 136.521 153.815 M230.677 153.815 L 230.682 169.968 247.403 169.972 L 264.123 169.976 247.487 169.888 L 230.850 169.799 230.761 153.731 L 230.673 137.662 230.677 153.815 M218.657 196.104 C 218.657 205.122,218.699 208.811,218.750 204.302 C 218.801 199.793,218.801 192.415,218.750 187.906 C 218.699 183.397,218.657 187.086,218.657 196.104 M350.429 196.104 C 350.429 197.265,350.488 197.739,350.560 197.159 C 350.632 196.579,350.632 195.629,350.560 195.049 C 350.488 194.468,350.429 194.943,350.429 196.104 M60.803 196.104 C 60.803 196.907,60.866 197.236,60.943 196.834 C 61.021 196.433,61.021 195.775,60.943 195.373 C 60.866 194.972,60.803 195.300,60.803 196.104 M91.706 208.847 L 90.422 210.227 91.802 208.944 C 92.561 208.238,93.182 207.617,93.182 207.564 C 93.182 207.318,92.899 207.564,91.706 208.847 M319.481 208.929 C 320.086 209.554,320.655 210.065,320.744 210.065 C 320.834 210.065,320.411 209.554,319.805 208.929 C 319.199 208.304,318.631 207.792,318.541 207.792 C 318.452 207.792,318.875 208.304,319.481 208.929 M136.521 245.698 L 136.526 261.851 153.571 261.855 L 170.617 261.859 153.656 261.771 L 136.694 261.683 136.606 245.614 L 136.517 229.545 136.521 245.698 M230.345 247.240 C 230.345 256.169,230.387 259.775,230.438 255.253 C 230.489 250.732,230.489 243.427,230.438 239.020 C 230.387 234.612,230.345 238.312,230.345 247.240 M264.761 247.403 C 264.761 256.420,264.803 260.110,264.854 255.601 C 264.905 251.092,264.905 243.713,264.854 239.205 C 264.803 234.696,264.761 238.385,264.761 247.403 M91.976 283.929 C 91.978 284.821,92.041 285.148,92.116 284.655 C 92.191 284.161,92.189 283.431,92.112 283.031 C 92.035 282.632,91.974 283.036,91.976 283.929 M272.507 287.013 C 272.507 288.174,272.565 288.649,272.637 288.068 C 272.709 287.488,272.709 286.538,272.637 285.958 C 272.565 285.377,272.507 285.852,272.507 287.013 M97.240 296.753 C 97.938 297.468,98.581 298.052,98.671 298.052 C 98.760 298.052,98.262 297.468,97.565 296.753 C 96.867 296.039,96.224 295.455,96.134 295.455 C 96.045 295.455,96.543 296.039,97.240 296.753 M198.782 298.600 C 199.095 298.682,199.606 298.682,199.919 298.600 C 200.231 298.519,199.976 298.452,199.351 298.452 C 198.726 298.452,198.470 298.519,198.782 298.600 M303.069 300.081 L 301.786 301.461 303.166 300.178 C 304.449 298.984,304.695 298.701,304.449 298.701 C 304.396 298.701,303.775 299.322,303.069 300.081 M217.305 316.558 C 217.305 317.541,217.366 317.942,217.440 317.451 C 217.515 316.960,217.515 316.157,217.440 315.666 C 217.366 315.175,217.305 315.576,217.305 316.558 M211.835 329.627 L 210.552 331.006 211.932 329.723 C 212.691 329.017,213.312 328.396,213.312 328.343 C 213.312 328.098,213.029 328.343,211.835 329.627 " stroke="none" fill="#736c4a" fill-rule="evenodd"></path><path id="path4" d="M90.353 117.695 C 90.355 118.588,90.418 118.914,90.493 118.421 C 90.567 117.927,90.565 117.197,90.488 116.797 C 90.411 116.398,90.350 116.802,90.353 117.695 M126.716 117.695 C 126.719 118.588,126.782 118.914,126.856 118.421 C 126.931 117.927,126.929 117.197,126.852 116.797 C 126.775 116.398,126.714 116.802,126.716 117.695 M307.231 118.182 C 307.231 118.985,307.295 119.314,307.372 118.912 C 307.449 118.511,307.449 117.853,307.372 117.451 C 307.295 117.050,307.231 117.378,307.231 118.182 M170.930 153.734 C 170.930 162.662,170.972 166.268,171.023 161.747 C 171.073 157.226,171.073 149.920,171.022 145.513 C 170.971 141.106,170.930 144.805,170.930 153.734 M184.241 195.942 C 184.242 204.870,184.283 208.476,184.334 203.955 C 184.385 199.433,184.385 192.128,184.334 187.721 C 184.283 183.314,184.241 187.013,184.241 195.942 M170.930 245.617 C 170.930 254.545,170.972 258.151,171.023 253.630 C 171.073 249.109,171.073 241.803,171.022 237.396 C 170.971 232.989,170.930 236.688,170.930 245.617 " stroke="none" fill="#7c6c24" fill-rule="evenodd"></path></g></svg>